<svg xmlns="http://www.w3.org/2000/svg" version="1.1" width="1024" height="1024">

<path d="M0 0 C8.46199442 3.68982315 12.70069125 10.4869728 16.62890625 18.53515625 C17.14539482 19.58120026 17.14539482 19.58120026 17.6723175 20.64837646 C21.74725613 28.93420951 25.69957593 37.27880391 29.640625 45.62890625 C30.43381375 47.30648928 31.22702701 48.98406072 32.02026367 50.66162109 C38.73302373 64.86919044 45.35969797 79.11557431 51.953125 93.37890625 C59.2436926 109.13239403 66.58144788 124.86224348 73.98306274 140.56378174 C79.03356083 151.27894056 84.04207161 162.01239196 89.01953125 172.76171875 C93.29478726 181.98450689 97.61846501 191.18392404 101.953125 200.37890625 C107.34762082 211.82208592 112.70373222 223.28171387 118.01953125 234.76171875 C122.63429458 244.71690844 127.30659097 254.6444871 131.98590088 264.56945801 C136.4664305 274.07415874 140.91679041 283.5918283 145.328125 293.12890625 C150.41358972 304.1161887 155.57701967 315.06505161 160.765625 326.00390625 C161.53801362 327.63272682 162.31039317 329.2615517 163.08276367 330.89038086 C164.24029191 333.33128712 165.39784245 335.7721828 166.55543518 338.21305847 C170.42344825 346.3695465 174.28905647 354.52713756 178.140625 362.69140625 C178.46808716 363.38497223 178.79554932 364.07853821 179.13293457 364.79312134 C182.7397291 372.4388091 186.2994563 380.10231947 189.7578125 387.81640625 C202.96859436 417.28114163 216.1247693 446.16511647 237.953125 470.37890625 C238.69046875 471.20003906 239.4278125 472.02117187 240.1875 472.8671875 C252.99302441 486.39711201 268.07157008 493.40769244 285.953125 497.37890625 C285.75 499.72265625 285.75 499.72265625 284.953125 502.37890625 C264.37983882 516.95840039 225.21224194 516.84532851 201.390625 513.25390625 C166.22295886 507.20747168 135.55733212 488.8257023 108.70849609 465.87841797 C106.9633606 464.38764993 105.20472859 462.91450103 103.44140625 461.4453125 C97.65458672 456.60927364 92.00229056 451.64420334 86.42578125 446.56640625 C83.76633347 444.21365624 81.03083831 441.98112568 78.265625 439.75390625 C74.48053612 436.69181187 70.98886131 433.52972959 67.6015625 430.0390625 C64.55032849 426.96613725 61.23883324 424.19598836 57.953125 421.37890625 C56.9098112 420.47175086 55.86687121 419.56416544 54.82421875 418.65625 C46.73091426 411.63267725 38.45751415 404.8976593 29.953125 398.37890625 C28.99768799 397.64389893 28.99768799 397.64389893 28.02294922 396.89404297 C-6.29978301 370.56160894 -48.4302043 343.34443307 -93.73046875 348.9140625 C-122.35400285 352.85242876 -147.24200265 367.39969374 -165.046875 390.37890625 C-177.43645985 409.41056095 -184.10394611 429.82666137 -179.921875 452.62890625 C-176.73553739 465.82093953 -169.23915075 476.23750632 -157.93359375 483.65625 C-145.42919608 491.11827892 -133.27880597 494.28126972 -119.03369141 496.91748047 C-117.046875 497.37890625 -117.046875 497.37890625 -116.046875 498.37890625 C-115.94836329 500.21006508 -115.91714871 502.04510558 -115.921875 503.87890625 C-115.91929687 504.87921875 -115.91671875 505.87953125 -115.9140625 506.91015625 C-116.046875 509.37890625 -116.046875 509.37890625 -117.046875 510.37890625 C-119.29748558 510.47816674 -121.55127884 510.5052306 -123.80407715 510.50588989 C-124.51884767 510.50744988 -125.23361819 510.50900987 -125.97004843 510.51061714 C-128.38304759 510.51462959 -130.79598466 510.51143656 -133.20898438 510.50830078 C-134.93162574 510.50965471 -136.65426682 510.5114346 -138.37690735 510.51361084 C-143.06892157 510.51818613 -147.76091391 510.51639522 -152.45292854 510.51323175 C-157.35187974 510.51070864 -162.25082901 510.51304555 -167.14978027 510.51461792 C-175.37834003 510.51643976 -183.60689082 510.51403293 -191.83544922 510.50927734 C-201.36314598 510.5038347 -210.89082135 510.50559734 -220.41851759 510.51110375 C-228.58324349 510.51563447 -236.74796293 510.51628563 -244.91268969 510.51366508 C-249.79593793 510.51210208 -254.6791761 510.51190917 -259.56242371 510.51520157 C-264.15222874 510.51807969 -268.74200606 510.51610568 -273.33180809 510.51030731 C-275.02134848 510.5089794 -276.71089119 510.50937436 -278.40043068 510.51156998 C-280.69687677 510.51428026 -282.9932326 510.51090189 -285.28967285 510.50588989 C-286.57796242 510.50551287 -287.86625198 510.50513584 -289.19358063 510.50474739 C-292.046875 510.37890625 -292.046875 510.37890625 -293.046875 509.37890625 C-293.11931553 507.35926426 -293.13064688 505.33723501 -293.109375 503.31640625 C-293.10035156 502.21167969 -293.09132813 501.10695313 -293.08203125 499.96875 C-293.06462891 498.68677734 -293.06462891 498.68677734 -293.046875 497.37890625 C-292.43803467 497.05728516 -291.82919434 496.73566406 -291.2019043 496.40429688 C-271.96556463 486.19926491 -254.92455617 476.32175985 -243.046875 457.37890625 C-242.70785156 456.84072266 -242.36882812 456.30253906 -242.01953125 455.74804688 C-223.44753466 425.97336907 -208.46009002 393.26471786 -193.43725586 361.58813477 C-188.8100638 351.84072458 -184.08802673 342.13989219 -179.359375 332.44140625 C-178.92764984 331.55581024 -178.49592468 330.67021423 -178.05111694 329.75778198 C-171.9364462 317.22247159 -165.74715599 304.72692557 -159.48483276 292.26480103 C-154.92607632 283.19027799 -150.47335725 274.07239432 -146.12670898 264.89404297 C-142.53604254 257.33693485 -138.80497045 249.85388389 -135.046875 242.37890625 C-130.97103564 234.26844571 -126.9369053 226.14301596 -123.046875 217.94140625 C-117.71654531 206.71152783 -112.2606879 195.54429948 -106.796875 184.37890625 C-106.32862305 183.42186798 -105.86037109 182.46482971 -105.37792969 181.47879028 C-100.92843956 172.38559978 -96.47510723 163.2942919 -92.02148438 154.203125 C-89.0293918 148.09532435 -86.03779314 141.98728209 -83.046875 135.87890625 C-82.55897491 134.88248108 -82.07107483 133.88605591 -81.56838989 132.85943604 C-75.38438022 120.22752712 -69.22522924 107.58457776 -63.12573242 94.91162109 C-58.01272957 84.29058635 -52.85119906 73.69339773 -47.68640137 63.09747314 C-43.53195905 54.57328147 -39.39522609 46.04240822 -35.33325195 37.47363281 C-31.71690176 29.84689752 -28.0524862 22.25030152 -24.171875 14.75390625 C-23.82632568 14.07231445 -23.48077637 13.39072266 -23.12475586 12.68847656 C-18.23755681 3.41854824 -10.85674604 -3.29431798 0 0 Z " fill="#1F2224" transform="translate(516.046875,239.62109375)"/>
<path d="M0 0 C0.66 0 1.32 0 2 0 C2.37060547 0.82161621 2.74121094 1.64323242 3.12304688 2.48974609 C10.29948378 18.38199636 17.54185135 34.23774204 25 50 C30.28297914 61.16634421 35.47354835 72.36888943 40.5625 83.625 C47.01400297 97.89268997 53.63087213 112.07775641 60.29762268 126.24591064 C63.42866784 132.90378223 66.52956969 139.57549303 69.625 146.25 C70.4125769 147.94793701 70.4125769 147.94793701 71.21606445 149.68017578 C72.81111049 153.1199315 74.40557478 156.55995648 76 160 C77.70870935 163.6856629 79.41790426 167.37109987 81.12792969 171.05615234 C82.23533616 173.44260611 83.34120156 175.82975451 84.44628906 178.21728516 C86.8089752 183.31552113 89.18353137 188.40567457 91.62890625 193.46484375 C92.01393311 194.26510986 92.39895996 195.06537598 92.7956543 195.88989258 C93.4920081 197.33190096 94.1948359 198.77080939 94.90551758 200.20581055 C95.66304382 201.77660281 96.3412063 203.38530956 97 205 C96.67 205.66 96.34 206.32 96 207 C95.35788574 206.67837891 94.71577148 206.35675781 94.05419922 206.02539062 C75.19715906 196.63538164 56.62010264 188.65251078 36.125 183.625 C34.66513672 183.26656006 34.66513672 183.26656006 33.17578125 182.90087891 C19.24442936 179.68146844 5.44174516 178.60862053 -8.8125 178.6875 C-9.92609894 178.69172974 -9.92609894 178.69172974 -11.06219482 178.69604492 C-37.58929092 178.84690857 -61.7330236 184.95769699 -85 198 C-85.66870117 198.37253906 -86.33740234 198.74507812 -87.02636719 199.12890625 C-91.04325811 201.37638434 -95.03137952 203.66843547 -99 206 C-99.33 205.34 -99.66 204.68 -100 204 C-99.35906982 202.24385071 -99.35906982 202.24385071 -98.26855469 200.09887695 C-97.66101349 198.88908928 -97.66101349 198.88908928 -97.04119873 197.65486145 C-96.5893219 196.77488998 -96.13744507 195.89491852 -95.671875 194.98828125 C-95.20823547 194.06903366 -94.74459595 193.14978607 -94.26690674 192.2026825 C-92.76873831 189.23544038 -91.25990951 186.27378233 -89.75 183.3125 C-87.80361731 179.47711466 -85.86173637 175.63946865 -83.921875 171.80078125 C-83.42998184 170.82840515 -82.93808868 169.85602905 -82.43128967 168.85418701 C-78.57622985 161.20731995 -74.8584669 153.50078375 -71.18254089 145.76652527 C-65.74590463 134.33534083 -60.14931459 122.98332328 -54.5625 111.625 C-52.26617625 106.95219157 -49.9708206 102.27890812 -47.67578125 97.60546875 C-47.10806 96.44956741 -46.54033875 95.29366608 -45.95541382 94.10273743 C-40.6971243 83.39223962 -35.47139627 72.6660163 -30.25 61.9375 C-24.07266936 49.24484134 -17.8224787 36.59257352 -11.48095703 23.98120117 C-7.50262602 16.05424629 -3.6557565 8.08114595 0 0 Z " fill="#FFFFFF" transform="translate(482,360)"/>







</svg>